<svg width="202" height="226" viewBox="0 0 202 226" fill="none" xmlns="http://www.w3.org/2000/svg">
<g clip-path="url(#clip0_155_24)">
<path d="M195.601 48.9189L112.505 1.03615C107.392 -1.91091 100.997 1.77356 101 7.66768L101.008 38.6616C113.292 38.6514 125.746 41.7643 137.141 48.332C171.699 68.2444 183.559 112.356 163.594 146.863C150.21 169.996 125.945 182.917 101.003 182.935V225.998C102.324 225.998 103.644 225.656 104.827 224.972L195.606 172.675C199.561 170.396 201.997 166.184 201.997 161.624L201.99 59.9621C201.99 55.405 199.553 51.1923 195.598 48.9138L195.601 48.9189Z" fill="#AD4A26"/>
<path d="M11.5125 59.2358L94.6135 107.119C98.5687 109.397 101.005 113.61 101.005 118.167V212.174C101.005 214.139 101.066 219.061 101.066 222.335C101.066 223.812 101.066 225.968 101.066 226.001C100.243 226.009 99.0723 225.866 97.9576 225.376C97.1804 225.055 90.8732 221.35 87.9765 219.681L3.83496 171.201C1.4624 169.834 0 167.305 0 164.572L0.00766992 65.8648C0.00766992 59.9732 6.39927 56.2913 11.5125 59.2358Z" fill="#F05A23"/>
</g>
<defs>
<clipPath id="clip0_155_24">
<rect width="202" height="226" fill="white"/>
</clipPath>
</defs>
</svg>
